HIERARCHY
ROOT ui
{
	 OFFSET 0 0 0
	 CHANNELS 3 XPosition YPosition Z Position
	 EndSite
	 {
	 OFFSET 0 -1 0
	 }
}
ROOT li
{
	 OFFSET 0 0 0
	 CHANNELS 3 XPosition YPosition Z Position
	 EndSite
	 {
	 OFFSET 0 -1 0
	 }
}
ROOT ul
{
	 OFFSET 0 0 0
	 CHANNELS 3 XPosition YPosition Z Position
	 EndSite
	 {
	 OFFSET 0 -1 0
	 }
}
ROOT ll
{
	 OFFSET 0 0 0
	 CHANNELS 3 XPosition YPosition Z Position
	 EndSite
	 {
	 OFFSET 0 -1 0
	 }
}
ROOT tt
{
	 OFFSET 0 0 0
	 CHANNELS 3 XPosition YPosition Z Position
	 EndSite
	 {
	 OFFSET 0 -1 0
	 }
}
ROOT tb
{
	 OFFSET 0 0 0
	 CHANNELS 3 XPosition YPosition Z Position
	 EndSite
	 {
	 OFFSET 0 -1 0
	 }
}
ROOT td
{
	 OFFSET 0 0 0
	 CHANNELS 3 XPosition YPosition Z Position
	 EndSite
	 {
	 OFFSET 0 -1 0
	 }
}
ROOT v
{
	 OFFSET 0 0 0
	 CHANNELS 3 XPosition YPosition Z Position
	 EndSite
	 {
	 OFFSET 0 -1 0
	 }
}
ROOT bn
{
	 OFFSET 0 0 0
	 CHANNELS 3 XPosition YPosition Z Position
	 EndSite
	 {
	 OFFSET 0 -1 0
	 }
}
MOTION
Frames: 13
Frame Time: 0.002
-0.0013001589775085449	-5.327799916267395E-5	0		0.4876913146972656	-2.423731689453125	0		-0.9175587768554687	0.062068973541259766	0		-0.6972447509765625	-2.411060791015625	0		1.456512939453125	-0.704393310546875	0		3.191045166015625	-0.1462823944091797	0		4.57191357421875	0.06147484588623047	0		5.73646435546875	0.3335697021484375	0		-0.34933248901367187	5.89806494140625	0		
-0.009519302368164062	0.0020838980674743653	0		0.51116455078125	-2.4280654296875	0		-0.8388864135742188	0.055133293151855466	0		-0.6477992553710937	-2.417630615234375	0		1.4541480712890624	-0.7084707641601562	0		3.19905078125	-0.1266560821533203	0		4.5765654296875	0.05301547622680664	0		5.747029296875	0.3410126037597656	0		-0.23088238525390625	5.9085556640625	0		
-0.0048340559005737305	-0.0029449310302734374	0		0.4925625610351563	-2.4368359375	0		-0.8329143676757812	0.0711695785522461	0		-0.642201171875	-2.411612060546875	0		1.4618177490234374	-0.70968212890625	0		3.175658935546875	-0.13661997985839844	0		4.57143115234375	0.0606749267578125	0		5.74974951171875	0.34867526245117186	0		-0.23055690002441406	5.90861474609375	0		
-0.005077665805816651	-0.0029009759426116945	0		0.494117919921875	-2.43386865234375	0		-0.8181114501953125	0.07409268951416016	0		-0.66166845703125	-2.410248291015625	0		1.45047802734375	-0.7116348266601562	0		3.17946923828125	-0.13194596862792968	0		4.5760849609375	0.05219818115234375	0		5.7531953125	0.3580325927734375	0		-0.3634993591308594	5.88848046875	0		
0.0017839239835739135	0.004054368019104004	0		0.4707392272949219	-2.4265546875	0		-0.8622647094726562	0.07982378387451172	0		-0.64996630859375	-2.3972958984375	0		1.47319921875	-0.7100423583984375	0		3.198989990234375	-0.14948377990722655	0		4.58484326171875	0.05066898727416992	0		5.76739599609375	0.37568878173828124	0		-0.36497979736328123	5.90059375	0		
0.023512086868286132	-1.8816299736499787E-4	0		0.5211678466796875	-2.4352412109375	0		-0.7932454223632812	0.0960207977294922	0		-0.643324951171875	-2.390268798828125	0		1.4639552001953124	-0.7070068969726563	0		3.193979736328125	-0.13367625427246094	0		4.5797294921875	0.05733940124511719	0		5.77730224609375	0.388309326171875	0		-0.21336135864257813	5.9176162109375	0		
-0.002677649974822998	2.364480048418045E-4	0		0.46578375244140624	-2.431465087890625	0		-0.7775126342773437	0.08994593811035156	0		-0.6027138061523437	-2.387704345703125	0		1.455556396484375	-0.7169710693359375	0		3.1855126953125	-0.15280897521972656	0		4.586458984375	0.05086253356933594	0		5.78150048828125	0.3976878662109375	0		-0.3623878173828125	5.888765625	0		
0.01416894245147705	0.0010774309635162354	0		0.5162837524414062	-2.439140869140625	0		-0.7636432495117188	0.09190249633789062	0		-0.6339931030273438	-2.379139404296875	0		1.426380615234375	-0.7126298217773438	0		3.18533251953125	-0.15303579711914062	0		4.58221533203125	0.04455820846557617	0		5.788482421875	0.3914408874511719	0		-0.22869837951660157	5.90902587890625	0		
-0.006022838115692139	-0.0025565099716186525	0		0.4639957275390625	-2.433374267578125	0		-0.7487320556640625	0.0948497543334961	0		-0.6054654541015625	-2.38739892578125	0		1.4520625	-0.7210377197265625	0		3.20606640625	-0.16153610229492188	0		4.5861650390625	0.050165504455566404	0		5.7998232421875	0.39547225952148435	0		-0.36158551025390623	5.888998046875	0		
0.01797715759277344	0.005202288150787353	0		0.49166671752929686	-2.433712646484375	0		-0.8086587524414063	0.1078574447631836	0		-0.6285599365234374	-2.370925537109375	0		1.4339605712890624	-0.7158164672851562	0		3.19025341796875	-0.13950051879882813	0		4.5899462890625	0.041799747467041015	0		5.81414599609375	0.41848202514648436	0		-0.34603314208984376	5.8989150390625	0		
-0.0031749489307403562	6.063640117645264E-4	0		0.4644073791503906	-2.431264404296875	0		-0.7316986083984375	0.10994202423095703	0		-0.5748929443359375	-2.37452978515625	0		1.4427867431640624	-0.7179580688476562	0		3.190845947265625	-0.16167579650878905	0		4.58597998046875	0.04957349395751953	0		5.8177119140625	0.428072265625	0		-0.21231777954101563	5.91916455078125	0		
0.018705274581909178	-0.003588844060897827	0		0.48704861450195314	-2.43851123046875	0		-0.7276937255859375	0.11406130981445313	0		-0.5710741577148437	-2.369423095703125	0		1.439625732421875	-0.7209136962890625	0		3.239824462890625	-0.15851425170898437	0		4.59672265625	0.03516595077514648	0		5.824259765625	0.45665066528320314	0		-0.226070556640625	5.90750048828125	0		
-0.011248119354248047	0.002966586112976074	0		0.48479098510742186	-2.44039208984375	0		-0.7196133422851563	0.12212925720214844	0		-0.5621699829101563	-2.360381591796875	0		1.4315721435546875	-0.7177821655273438	0		3.1907177734375	-0.1619325408935547	0		4.58668408203125	0.03508435821533203	0		5.8285498046875	0.462870361328125	0		-0.2266309814453125	5.9096591796875	0		
